<svg xmlns="http://www.w3.org/2000/svg" xmlns:xlink="http://www.w3.org/1999/xlink" version="1.1" id="Layer_1" x="0px" y="0px" width="247px" height="52.333px" viewBox="0 0 247 52.333" enable-background="new 0 0 247 52.333" xml:space="preserve"><g><path fill="#FFFFFF" d="M231.924 20.632c-0.671 0-1.195 0.142-1.574 0.427c-0.379 0.284-0.567 0.638-0.567 1.1 c0 0.3 0.1 0.6 0.4 0.885c0.239 0.3 0.8 0.6 1.8 1.104l2.188 1.094c2.303 1.1 3.9 2.3 4.7 3.5 c0.859 1.2 1.3 2.6 1.3 4.154c0 2.113-0.776 3.877-2.33 5.291c-1.551 1.414-3.633 2.121-6.241 2.1 c-3.47 0-6.239-1.354-8.31-4.066l3.674-4.001c0.699 0.8 1.5 1.5 2.5 1.979c0.94 0.5 1.8 0.8 2.5 0.8 c0.787 0 1.422-0.188 1.902-0.568c0.48-0.379 0.721-0.816 0.721-1.312c0-0.919-0.866-1.814-2.602-2.689l-2.012-1.006 c-3.85-1.938-5.771-4.365-5.771-7.281c0-1.88 0.725-3.487 2.176-4.82c1.449-1.334 3.305-2.002 5.563-2.002 c1.545 0 3 0.3 4.4 1.018c1.363 0.7 2.5 1.6 3.5 2.919l-3.694 3.695C234.512 21.4 233.1 20.6 231.9 20.632z M202.844 29.181c0.273 1.7 1 3 2.2 3.993s2.709 1.5 4.6 1.482c2.207 0 4.104-0.771 5.691-2.316l4.979 2.3 c-1.242 1.76-2.728 3.062-4.459 3.905c-1.731 0.846-3.787 1.268-6.168 1.268c-3.695 0-6.703-1.165-9.025-3.496 c-2.323-2.33-3.485-5.248-3.485-8.755c0-3.593 1.158-6.575 3.476-8.95c2.314-2.373 5.22-3.56 8.711-3.56 c3.709 0 6.7 1.2 9 3.56c2.323 2.4 3.5 5.5 3.5 9.405l-0.021 1.125H202.844L202.844 29.181z M213.607 21.3 c-1.149-0.822-2.482-1.234-4-1.234c-1.647 0-3.094 0.463-4.336 1.386c-0.781 0.577-1.504 1.595-2.168 3.052h12.812 C215.525 23.2 214.8 22.1 213.6 21.324z M187.469 36.756c-1.152 1.097-2.31 1.887-3.47 2.4 c-1.16 0.483-2.418 0.727-3.772 0.727c-3.041 0-5.672-1.18-7.891-3.539c-2.22-2.359-3.329-5.292-3.329-8.798 c0-3.637 1.073-6.616 3.222-8.939c2.147-2.323 4.756-3.484 7.826-3.484c1.411 0 2.7 0.3 4 0.8 c1.239 0.5 2.4 1.3 3.4 2.402V6.606h5.908v32.639h-5.908v-2.488H187.469z M185.895 22.4 c-1.222-1.27-2.768-1.904-4.638-1.904c-1.825 0-3.343 0.646-4.551 1.938s-1.812 2.947-1.812 4.967c0 2 0.6 3.7 1.8 5 c1.229 1.3 2.7 2 4.5 1.97c1.854 0 3.395-0.646 4.615-1.938c1.224-1.291 1.834-2.982 1.834-5.074 C187.729 25.4 187.1 23.7 185.9 22.449z M160.441 36.756c-1.152 1.097-2.31 1.887-3.469 2.4 c-1.162 0.483-2.418 0.727-3.772 0.727c-3.041 0-5.673-1.18-7.892-3.539c-2.22-2.359-3.33-5.292-3.33-8.798 c0-3.637 1.074-6.616 3.223-8.939c2.148-2.323 4.756-3.484 7.826-3.484c1.412 0 2.7 0.3 4 0.8 c1.239 0.5 2.4 1.3 3.4 2.402v-2.597h5.908v23.548h-5.908v-2.49H160.441z M158.868 22.4 c-1.222-1.27-2.769-1.904-4.638-1.904c-1.826 0-3.344 0.646-4.553 1.938c-1.207 1.292-1.812 2.947-1.812 5 c0 2 0.6 3.7 1.8 5.021s2.743 2 4.5 1.97c1.854 0 3.396-0.646 4.616-1.938c1.223-1.291 1.834-2.982 1.834-5.074 C160.702 25.4 160.1 23.7 158.9 22.449z M139.445 20.545c-1.869 0-3.414 0.635-4.637 1.9 c-0.761 0.789-1.283 1.73-1.57 2.82c-0.062 0-0.096 0-0.096 0v0.443c-0.107 0.539-0.168 1.107-0.168 1.7 c0 0.6 0.1 1.2 0.2 1.752v10.066h-5.816V15.697h5.908v2.597c1.053-1.067 2.197-1.868 3.438-2.402 c1.223-0.526 2.528-0.79 3.917-0.798c-0.128 1.256-0.042 3.5 0 5.549C140.223 20.6 139.8 20.5 139.4 20.545z M119.982 39.245h-5.908V20.783h-3.03v-5.086h3.03v-8.68h5.908v8.68h3.507v5.086h-3.507V39.245z M102 46.5H14c-3.314 0-6-2.688-6-6 v-28c0-3.313 2.686-6 6-6h38.406v32.745h5.865v-9.457c0-2.525 0.086-4.143 0.26-4.85c0.332-1.37 0.928-2.452 1.785-3.247 c0.859-0.793 1.887-1.189 3.085-1.189c0.923 0 1.7 0.2 2.3 0.714c0.627 0.5 1.1 1.2 1.3 2.2 c0.26 1 0.4 2.8 0.4 5.54v10.324h5.822V23.684c0-2.713-0.686-4.77-2.057-6.169c-1.602-1.616-3.571-2.424-5.909-2.424 c-1.198 0-2.381 0.249-3.55 0.747c-1.168 0.497-2.33 1.244-3.484 2.24V6.5H102c3.313 0 6 2.7 6 6v28 C108 43.8 105.3 46.5 102 46.5z M43.219 15.697l-4.74 13.245l-5.004-13.245h-3.537l-5.096 13.395l-4.734-13.395h-5.783 l8.484 23.547h3.701l5.172-13.418l5.021 13.418h3.744l8.594-23.547H43.219z M99.889 21.281c-1.098-1.905-2.623-3.413-4.578-4.523 c-1.955-1.111-4.044-1.667-6.266-1.667c-3.074 0-5.793 1.067-8.16 3.203c-2.698 2.453-4.047 5.519-4.047 9.2 c0 3.4 1.2 6.4 3.6 8.754c2.388 2.4 5.3 3.6 8.6 3.604c2.295 0 4.394-0.545 6.299-1.636 c1.904-1.088 3.408-2.6 4.512-4.533s1.656-4.012 1.656-6.232C101.533 25.2 101 23.2 99.9 21.281z M89.121 34.4 c-1.851 0-3.379-0.635-4.586-1.904c-1.207-1.269-1.811-2.93-1.811-4.979c0-1.991 0.61-3.625 1.832-4.902 c1.221-1.277 2.75-1.915 4.586-1.915c1.879 0 3.4 0.6 4.6 1.894c1.206 1.3 1.8 2.9 1.8 4.9 c0 2.021-0.614 3.673-1.843 4.957S90.971 34.4 89.1 34.354z"/></g><g><path fill="#E91D25" d="M207.674 13.449c-3.492 0-6.396 1.188-8.712 3.561c-2.196 2.252-3.339 5.059-3.451 8.407h5.474 c0.041-0.893 0.211-1.75 0.531-2.53h-0.054c0.665-1.458 1.388-2.475 2.168-3.053c1.209-0.898 2.613-1.352 4.206-1.375 c0.032-0.002 0.062-0.006 0.096-0.01V13.46C207.844 13.5 207.8 13.4 207.7 13.449z"/><path fill="#E91D25" d="M143.594 17.48c-2.146 2.324-3.222 5.303-3.222 8.939c0 0.2 0 0.4 0 0.639h5.916 c-0.019-0.235-0.056-0.459-0.056-0.703c0-2.021 0.604-3.676 1.812-4.968c1.209-1.291 2.727-1.937 4.553-1.937 c0.02 0 0 0 0.1 0.004v-5.453c-0.369-0.003-0.771-0.006-1.256-0.006C148.35 14 145.7 15.2 143.6 17.48z"/></g><path fill="#FBAD18" d="M174.878 20.841c-1.208 1.292-1.812 2.947-1.812 4.968c0 0.2 0 0.5 0.1 0.703h-5.917 c-0.01-0.213-0.025-0.422-0.025-0.639c0-3.637 1.073-6.615 3.221-8.939c2.147-2.322 4.757-3.484 7.826-3.484 c0.484 0 0.9 0 1.3 0.006v5.453c-0.018 0-0.033-0.004-0.053-0.004C177.604 18.9 176.1 19.5 174.9 20.841z"/></svg>